<?xml version="1.0" encoding="UTF-8" standalone="no"?>
<!-- Created with Inkscape (http://www.inkscape.org/) -->

<svg
   width="128"
   height="128"
   viewBox="0 0 128 128"
   version="1.1"
   id="svg1"
   sodipodi:docname="icon.svg"
   inkscape:version="1.4.3 (0d15f75042, 2025-12-25)"
   inkscape:export-filename="icon-red.svg"
   inkscape:export-xdpi="96"
   inkscape:export-ydpi="96"
   xmlns:inkscape="http://www.inkscape.org/namespaces/inkscape"
   xmlns:sodipodi="http://sodipodi.sourceforge.net/DTD/sodipodi-0.dtd"
   xmlns="http://www.w3.org/2000/svg"
   xmlns:svg="http://www.w3.org/2000/svg">
  <sodipodi:namedview
     id="namedview1"
     pagecolor="#ffffff"
     bordercolor="#000000"
     borderopacity="0.25"
     inkscape:showpageshadow="2"
     inkscape:pageopacity="0.0"
     inkscape:pagecheckerboard="0"
     inkscape:deskcolor="#d1d1d1"
     inkscape:zoom="1.8646602"
     inkscape:cx="72.935541"
     inkscape:cy="80.175466"
     inkscape:window-width="1280"
     inkscape:window-height="734"
     inkscape:window-x="0"
     inkscape:window-y="0"
     inkscape:window-maximized="1"
     inkscape:current-layer="g1">
    <inkscape:page
       x="0"
       y="0"
       width="128"
       height="128"
       id="page2"
       margin="0"
       bleed="0" />
  </sodipodi:namedview>
  <defs
     id="defs1" />
  <g
     id="g1"
     transform="translate(7.11779)">
    <path
       style="fill:#e1f9ed;fill-opacity:1;stroke-width:24"
       d="M 35.765023,0.15625 113.76502,20 v 88 l -77.765622,20 z"
       id="path1" />
    <path
       id="rect2"
       style="baseline-shift:baseline;display:inline;overflow:visible;vector-effect:none;fill:#63e9a6;fill-opacity:1;enable-background:accumulate;stop-color:#000000"
       d="M 35.765023,0 V 0.15625 L -6.025e-4,24 v 80 L 35.765023,127.84375 V 128 l 0.169921,-0.043 0.06445,0.043 v -0.0606 L 113.76502,108 V 20 L 35.999398,0.06054687 V 0 l -0.06445,0.04296875 z m 6.894531,9.546875 67.687496,15.185547 v 78.535158 l -67.687496,15.18554 z" />
    <path
       id="rect5"
       style="fill:#63e9a6;fill-opacity:1;stroke:none;stroke-width:8.16162;stroke-dasharray:none;stroke-opacity:1"
       inkscape:label="rect5"
       d="m 49.307991,18.566406 v 22.716797 l 36.822266,3.552735 -40.236328,53.033203 13.095703,13.546879 36.28125,-52.769536 v 41.919926 l 11.578128,-2.232426 v -51.5 -17.167968 L 95.270882,27.433594 Z" />
  </g>
</svg>
