<?xml version="1.0" encoding="UTF-8" standalone="no"?>
<!DOCTYPE svg PUBLIC "-//W3C//DTD SVG 1.1//EN" "http://www.w3.org/Graphics/SVG/1.1/DTD/svg11.dtd">
<!-- Created with Vectornator (http://vectornator.io/) -->
<svg height="1080.0pt" stroke-miterlimit="10" style="fill-rule:nonzero;clip-rule:evenodd;stroke-linecap:round;stroke-linejoin:round;" version="1.1" viewBox="0 0 1920 1080" width="1920.0pt" xml:space="preserve" xmlns="http://www.w3.org/2000/svg" xmlns:xlink="http://www.w3.org/1999/xlink">
<defs/>
<path d="M0 0L1920 0L1920 1080L0 1080L0 0Z" fill="#000000" fill-rule="nonzero" opacity="1" stroke="none"/>
<g id="Layer-1">
<g opacity="1">
<path d="M513.207 380L513.207 380.391L423.793 440L423.793 640L513.207 699.609L513.207 700L513.632 699.893L513.793 700L513.793 699.849L708.207 650L708.207 430L513.793 380.151L513.793 380L513.632 380.107L513.207 380ZM530.443 403.867L699.662 441.831L699.662 638.169L530.443 676.133L530.443 403.867Z" fill="#ffffff" fill-rule="nonzero" opacity="1" stroke="none"/>
<path d="M547.064 426.416L547.064 483.208L639.12 492.09L538.529 624.673L571.269 658.54L661.972 526.616L661.972 631.416L690.917 625.835L690.917 497.085L690.917 454.165L661.972 448.584L547.064 426.416Z" fill="#ffffff" fill-rule="nonzero" opacity="1" stroke="none"/>
</g>
<g fill="#ffffff" opacity="1" stroke="none">
<path d="M764.111 606.72C795.791 606.72 814.991 586.944 814.991 557.76L814.991 470.4L788.111 470.4L788.111 557.376C788.111 574.464 778.895 582.144 763.151 582.144C752.783 582.144 743.951 578.88 733.967 569.664L733.967 597.696C741.071 603.456 751.247 606.72 764.111 606.72Z"/>
<path d="M874.511 606.528C880.271 606.528 884.495 605.568 887.951 604.032L902.351 579.264L902.351 604.8L929.039 604.8L929.039 508.8L902.351 508.8L902.351 577.344C897.743 580.032 892.175 581.952 885.263 581.952C870.671 581.952 864.335 572.736 864.335 561.6L864.335 508.8L837.647 508.8L837.647 569.28C837.647 592.128 851.663 606.528 874.511 606.528Z"/>
<path d="M951.311 604.8L977.999 604.8L977.999 536.256C982.415 533.568 987.983 531.648 994.511 531.648C1008.53 531.648 1014.29 540.672 1014.29 552L1014.29 604.8L1040.98 604.8L1040.98 536.256C1045.39 533.568 1050.96 531.648 1057.49 531.648C1071.5 531.648 1077.26 540.672 1077.26 552L1077.26 604.8L1103.95 604.8L1103.95 544.32C1103.95 520.704 1090.51 507.072 1068.82 507.072C1063.06 507.072 1058.45 508.032 1054.99 509.568L1040.59 534.336C1036.75 516.864 1024.27 507.072 1005.84 507.072C1000.08 507.072 995.855 508.032 992.399 509.568L977.999 534.336L977.999 508.8L951.311 508.8L951.311 604.8Z"/>
<path d="M1127.18 604.8L1154.06 604.8L1154.06 536.832L1167.31 560.448L1179.22 560.448C1206.86 560.448 1226.83 542.4 1226.83 515.712C1226.83 489.216 1206.86 470.4 1179.22 470.4L1127.18 470.4L1127.18 604.8ZM1178.06 535.872L1154.06 535.872L1154.06 494.976L1178.06 494.976C1191.31 494.976 1199.57 501.696 1199.57 515.712C1199.57 529.728 1191.31 535.872 1178.06 535.872Z"/>
<path d="M1242.19 604.8L1268.88 604.8L1268.88 536.256C1275.02 532.8 1280.98 531.648 1289.42 531.648C1295.57 531.648 1299.79 532.224 1305.74 534.144L1305.74 507.84C1302.67 507.264 1299.41 507.072 1296.34 507.072C1291.34 507.072 1287.31 507.84 1283.28 509.568L1268.88 534.72L1268.88 508.8L1242.19 508.8L1242.19 604.8Z"/>
<path d="M1362.96 606.72C1375.63 606.72 1387.54 602.88 1397.14 596.16L1397.14 571.584C1384.08 580.8 1374.48 583.68 1364.69 583.68C1350.1 583.68 1340.69 577.536 1337.23 566.976L1405.97 566.976L1405.97 556.608C1405.97 528 1386 506.88 1359.12 506.88C1332.24 506.88 1310.35 528 1310.35 556.608C1310.35 585.216 1332.24 606.72 1362.96 606.72ZM1335.7 557.184C1335.7 539.904 1346.06 529.92 1359.12 529.92C1369.3 529.92 1377.74 535.872 1381.01 546.432L1348.75 546.432L1336.85 566.016C1336.08 563.328 1335.7 560.448 1335.7 557.184Z"/>
<path d="M1448.78 606.528C1476.82 606.528 1490.83 596.544 1490.83 575.04C1490.83 557.952 1481.81 550.656 1465.3 547.008L1448.59 543.36C1443.41 542.208 1441.1 539.904 1441.1 536.448C1441.1 531.648 1445.52 529.344 1456.27 529.344C1467.41 529.344 1478.16 532.032 1485.07 536.832L1485.07 512.256C1478.54 508.608 1470.67 507.072 1460.3 507.072C1432.85 507.072 1417.87 517.824 1417.87 537.408C1417.87 552.384 1426.13 561.984 1442.26 565.632L1460.11 569.664C1465.3 570.816 1467.79 572.928 1467.79 576.384C1467.79 581.952 1462.42 584.256 1450.32 584.256C1437.84 584.256 1427.28 581.76 1418.64 576.768L1418.64 601.344C1427.47 604.608 1436.88 606.528 1448.78 606.528Z"/>
</g>
</g>
</svg>
